<svg id="a202fcd1-2d2a-48aa-ae6f-8297a9990448" data-name="Слой 1" xmlns="http://www.w3.org/2000/svg" viewBox="0 0 13.74 13.69"><defs><style>.e055374a-d4cf-4bc1-928b-7a25d26a6c5c{fill:#f05d63;fill-rule:evenodd;}</style></defs><g id="a59a5415-56d0-4b7d-bc14-edb4886a2e4c" data-name="edit icon"><path id="bd2940c0-8dcf-45c3-9f75-268e2d3af735" data-name="Combined Shape" class="e055374a-d4cf-4bc1-928b-7a25d26a6c5c" d="M7.5.59a2,2,0,0,1,2.83,0l2.83,2.82a2,2,0,0,1,0,2.83l-6.95,7a.57.57,0,0,1-.31.15l-3.71.35A2,2,0,0,1,0,11.48l.4-3.64a.47.47,0,0,1,.14-.3Zm.71,2.12a1,1,0,0,1,1.41,0L11,4.12a1,1,0,0,1,0,1.42l-.71.7L7.5,3.42ZM6.09,4.83,2.55,8.37l-.42,2.06a1,1,0,0,0,1.18,1.18l2.07-.41L8.91,7.66Z"/></g></svg>