<svg id="f806bbc6-ac1c-444e-8842-bbc5b4a08f42" data-name="Слой 1" xmlns="http://www.w3.org/2000/svg" viewBox="0 0 14.24 14.24"><defs><style>.f0ca5601-e3ba-4d4f-bb1b-46705f365ba2{fill:#3e4056;fill-rule:evenodd;}</style></defs><g id="a4991ab7-7011-42a3-b1fa-7a2dab632b0a" data-name="a/icon_link copy"><g id="a2a9b589-433c-4827-886f-2a05f9c9b940" data-name="Group"><path id="ac61d789-dc1d-4e1e-958c-83cab21ded4a" data-name="Combined Shape" class="f0ca5601-e3ba-4d4f-bb1b-46705f365ba2" d="M5.71,1.46a5,5,0,0,1,7.07,7.07L8.53,12.78A5,5,0,0,1,1.46,5.71ZM7.12,2.88,2.88,7.12a3,3,0,0,0,4.24,4.25l4.25-4.25A3,3,0,0,0,7.12,2.88ZM5,2.17,2.17,5,3.59,6.41,6.41,3.58Zm5.66,5.66L7.83,10.66l1.41,1.41,2.83-2.83ZM7.83,5A1,1,0,0,1,9.25,6.41L6.41,9.25A1,1,0,0,1,5,9.24,1,1,0,0,1,5,7.83Z"/></g><path id="ad2e338f-a138-4064-9ebb-c6e5cd3e1a86" data-name="Combined Shape_3" class="f0ca5601-e3ba-4d4f-bb1b-46705f365ba2" d="M2.17,5A1,1,0,0,1,3.59,5,1,1,0,1,1,2.17,5Zm5.66,5.66a1,1,0,1,1,0,1.41A1,1,0,0,1,7.83,10.66Zm2.83-2.83a1,1,0,1,1,0,1.41A1,1,0,0,1,10.66,7.83ZM5,2.17A1,1,0,0,1,6.41,3.58,1,1,0,0,1,5,3.58,1,1,0,0,1,5,2.17Z"/></g></svg>