<svg id="b2f878dd-77d2-4c09-b9a4-707f73bc2f55" data-name="Слой 1" xmlns="http://www.w3.org/2000/svg" viewBox="0 0 16 15.42"><defs><style>.bae8df2b-01c6-49e5-bc60-1f7b441e47a7{fill:#3e4056;}</style></defs><g id="b9b9b8c9-97a8-42bd-8cda-88f7a0d50de3" data-name="Rectangle 10"><path class="bae8df2b-01c6-49e5-bc60-1f7b441e47a7" d="M12,15.42H4a3,3,0,0,1-3-3v-6a3,3,0,0,1,3-3h8a3,3,0,0,1,3,3v6A3,3,0,0,1,12,15.42Zm-8-10a1,1,0,0,0-1,1v6a1,1,0,0,0,1,1h8a1,1,0,0,0,1-1v-6a1,1,0,0,0-1-1Z"/></g><g id="ac1fcabc-fe41-4ad4-8f2c-08a9574db54f" data-name="Oval 6 Copy 3"><path class="bae8df2b-01c6-49e5-bc60-1f7b441e47a7" d="M5.56,6.07a4.5,4.5,0,0,1-1.48-.24A3.16,3.16,0,0,1,2.34,4.28,2.93,2.93,0,0,1,2.21,2,3,3,0,0,1,6.13.19a4.73,4.73,0,0,1,2,1.52,2.74,2.74,0,0,1,.64,2.64C8.35,5.56,6.89,6.07,5.56,6.07ZM5.05,2a1,1,0,0,0-1,.64.94.94,0,0,0,0,.75A1.09,1.09,0,0,0,4.77,4a2.41,2.41,0,0,0,2.14-.28A1.13,1.13,0,0,0,6.58,3a2.88,2.88,0,0,0-1.13-.88A1.09,1.09,0,0,0,5.05,2Z"/></g><g id="abe7f8d5-9a70-44fc-800c-0d9336f48a5e" data-name="Oval 6 Copy 4"><path class="bae8df2b-01c6-49e5-bc60-1f7b441e47a7" d="M10.44,6.07c-1.33,0-2.79-.51-3.23-1.72a2.74,2.74,0,0,1,.64-2.64,4.73,4.73,0,0,1,2-1.52A3,3,0,0,1,13.79,2a3.05,3.05,0,0,1-1.87,3.87A4.5,4.5,0,0,1,10.44,6.07ZM11,2a1.09,1.09,0,0,0-.4.07A2.88,2.88,0,0,0,9.42,3a1.13,1.13,0,0,0-.33.72A2.42,2.42,0,0,0,11.23,4h0a1,1,0,0,0,.68-1.31A1,1,0,0,0,11,2Z"/></g><g id="ba091cbe-8ec9-403f-a7b6-b61023df330d" data-name="Rectangle 11"><rect class="bae8df2b-01c6-49e5-bc60-1f7b441e47a7" x="7" y="4.42" width="2" height="10"/></g><path class="bae8df2b-01c6-49e5-bc60-1f7b441e47a7" d="M14,4.12H2a2,2,0,0,0-2,2v3a1,1,0,0,0,1,1H15a1,1,0,0,0,1-1v-3A2,2,0,0,0,14,4.12Zm0,4.06H2V6.12H14Z"/></svg>