<svg id="f403017a-b431-4b8f-b62b-48c6c6adb165" data-name="Layer 1" xmlns="http://www.w3.org/2000/svg" viewBox="0 0 54.2 54.19"><defs><style>.b8e75305-8be3-4ad5-8398-b40b89211fa1{fill:#b2b3bb;}</style></defs><path class="b8e75305-8be3-4ad5-8398-b40b89211fa1" d="M52.3,14.6a21.73,21.73,0,0,0-9.2-9.3C17.6-8-7.9,17.5,5.4,42.9a22,22,0,0,0,9.3,9.3C40.2,65.5,65.6,40,52.3,14.6Zm-23.4-5a8.7,8.7,0,1,1-8.7,8.7A8.71,8.71,0,0,1,28.9,9.6ZM46,44.3H11.8a.79.79,0,0,1-.8-.8A17.79,17.79,0,0,1,21.6,27.2a.78.78,0,0,1,1,.3A7.31,7.31,0,0,0,28.8,31,7.09,7.09,0,0,0,35,27.5a.78.78,0,0,1,1-.3A18,18,0,0,1,46.8,43.5.79.79,0,0,1,46,44.3Z" transform="translate(-1.75 -1.65)"/></svg>